<mxfile host="app.diagrams.net" modified="2024-06-19T13:17:27.156Z" agent="Mozilla/5.0 (X11; Ubuntu; Linux x86_64; rv:127.0) Gecko/20100101 Firefox/127.0" version="24.5.5" etag="aAj96M-gL0HkSMRbxz5t" type="github">
  <diagram name="Page-1" id="PqCbcoU4bceAFt4kiQR4">
    <mxGraphModel>
      <root>
        <mxCell id="0" />
        <mxCell id="1" parent="0" />
      </root>
    </mxGraphModel>
  </diagram>
</mxfile>
